<svg id="Icons" height="512" viewBox="0 0 60 60" width="512" xmlns="http://www.w3.org/2000/svg"><path d="m18.4 53.24a27 27 0 1 1 34.26-14.24z" fill="#3b7ac8"/><g fill="#79de89"><path d="m22 42.87v2.3a6.568 6.568 0 0 1 -.45 2.41l-3.03 5.61-.12.05a27.083 27.083 0 0 1 -15.18-14.48l2.01-2.93a6.063 6.063 0 0 1 5.1-2.83 6.06 6.06 0 0 1 3.1.86l5.25 3.15a6.827 6.827 0 0 1 3.32 5.86z"/><path d="m15.59 15.61-3.07 4.62a3.015 3.015 0 0 0 -.52 1.7 3.064 3.064 0 0 1 -3.07 3.07h-7.76a26.79 26.79 0 0 1 5.08-13h7.41a2.32 2.32 0 0 1 1.93 3.61z"/><path d="m52.57 16.8c-4.48 13.93-8.57 17.2-8.57 17.2l-5.84-15.09a2.569 2.569 0 0 0 1.84-2.26 2.619 2.619 0 0 0 -2.66-2.65h-5.66a2.207 2.207 0 0 1 -1.94-3.25l4.82-8.94a27.026 27.026 0 0 1 18.01 14.99z"/></g><path d="m31 45-6.571 1.314a7.172 7.172 0 0 0 -5.388 4.618 18.347 18.347 0 0 0 -1.041 6.068 2 2 0 0 0 2 2h18l2-14z" fill="#30649d"/><path d="m24 34v-6a10 10 0 0 1 10-10 10 10 0 0 1 10 10v6z" fill="#203135"/><path d="m31 43.1v1.9a3 3 0 0 0 5.03 2.21l.97-4.21z" fill="#d7aa91"/><path d="m41.43 39a9.626 9.626 0 0 0 .57-3 2 2 0 0 0 0-4v-1.18a1.991 1.991 0 0 0 -1.69-1.97 12.152 12.152 0 0 1 -5.52-2.16 1.305 1.305 0 0 0 -1.59.01 12.164 12.164 0 0 1 -5.51 2.15 1.991 1.991 0 0 0 -1.69 1.97v1.18a2 2 0 0 0 0 4 9.554 9.554 0 0 0 1 4c.84 1.63 5 4 7 4a4.968 4.968 0 0 0 1.58-.32z" fill="#e7bda0"/><rect fill="#a8bcc6" height="4" rx="1" width="24" x="35" y="55"/><path d="m56.734 39h-19.468a2 2 0 0 0 -1.985 2.248l1.719 13.752h20l1.719-13.752a2 2 0 0 0 -1.985-2.248z" fill="#cadee8"/></svg>